<svg width="1612" height="645" viewBox="0 0 1612 645" fill="none" xmlns="http://www.w3.org/2000/svg">
<path d="M618.433 121.148C680.641 171.148 719.013 226.907 729.575 295.676C740.136 364.445 722.21 445.903 656.746 501.551C591.282 557.199 477.045 586.828 352.866 581.176C228.571 575.088 94.3339 533.718 90.895 471.792C87.4561 409.866 214.931 327.82 285.527 242.581C356.239 157.779 370.188 70.2213 419.905 48.6204C470.181 26.906 556.225 71.1482 618.433 121.148Z" fill="url(#paint0_linear)"/>
<path d="M373.576 367.9C379.96 367.9 384.824 366.456 388.168 363.568C391.664 360.528 393.412 355.968 393.412 349.888C393.412 344.112 391.588 339.704 387.94 336.664C384.444 333.472 379.276 331.876 372.436 331.876C370.004 331.876 367.952 331.952 366.28 332.104C364.76 332.104 363.164 332.256 361.492 332.56V367.9H373.576ZM361.72 441.088C360.048 441.544 357.388 442 353.74 442.456C350.244 442.912 346.748 443.14 343.252 443.14C339.756 443.14 336.64 442.836 333.904 442.228C331.32 441.772 329.116 440.86 327.292 439.492C325.468 438.124 324.1 436.224 323.188 433.792C322.276 431.36 321.82 428.168 321.82 424.216V316.828C321.82 313.636 322.656 311.204 324.328 309.532C326.152 307.708 328.584 306.264 331.624 305.2C336.792 303.376 342.644 302.084 349.18 301.324C355.868 300.412 362.556 299.956 369.244 299.956C390.22 299.956 406.256 304.44 417.352 313.408C428.448 322.376 433.996 334.536 433.996 349.888C433.996 357.336 432.78 364.1 430.348 370.18C428.068 376.108 424.572 381.276 419.86 385.684C415.3 389.94 409.448 393.284 402.304 395.716C395.312 397.996 387.18 399.136 377.908 399.136H361.72V441.088ZM531.673 445.648C522.705 445.648 514.345 444.432 506.593 442C498.993 439.416 492.305 435.616 486.529 430.6C480.905 425.584 476.421 419.276 473.077 411.676C469.885 404.076 468.289 395.184 468.289 385C468.289 374.968 469.885 366.38 473.077 359.236C476.421 351.94 480.753 346.012 486.073 341.452C491.393 336.74 497.473 333.32 504.313 331.192C511.153 328.912 518.145 327.772 525.289 327.772C533.345 327.772 540.641 328.988 547.177 331.42C553.865 333.852 559.565 337.196 564.277 341.452C569.141 345.708 572.865 350.8 575.449 356.728C578.185 362.656 579.553 369.116 579.553 376.108C579.553 381.276 578.109 385.228 575.221 387.964C572.333 390.7 568.305 392.448 563.137 393.208L506.821 401.644C508.493 406.66 511.913 410.46 517.081 413.044C522.249 415.476 528.177 416.692 534.865 416.692C541.097 416.692 546.949 415.932 552.421 414.412C558.045 412.74 562.605 410.84 566.101 408.712C568.533 410.232 570.585 412.36 572.257 415.096C573.929 417.832 574.765 420.72 574.765 423.76C574.765 430.6 571.573 435.692 565.189 439.036C560.325 441.62 554.853 443.368 548.773 444.28C542.693 445.192 536.993 445.648 531.673 445.648ZM525.289 356.044C521.641 356.044 518.449 356.652 515.713 357.868C513.129 359.084 511.001 360.68 509.329 362.656C507.657 364.48 506.365 366.608 505.453 369.04C504.693 371.32 504.237 373.676 504.085 376.108L543.073 369.724C542.617 366.684 540.945 363.644 538.057 360.604C535.169 357.564 530.913 356.044 525.289 356.044ZM662.049 403.924C662.049 407.876 663.265 410.688 665.697 412.36C668.281 414.032 671.853 414.868 676.413 414.868C678.693 414.868 681.049 414.716 683.481 414.412C685.913 413.956 688.041 413.424 689.865 412.816C691.233 414.488 692.373 416.388 693.285 418.516C694.349 420.492 694.881 422.924 694.881 425.812C694.881 431.588 692.677 436.3 688.269 439.948C684.013 443.596 676.413 445.42 665.469 445.42C652.093 445.42 641.757 442.38 634.461 436.3C627.317 430.22 623.745 420.34 623.745 406.66V309.076C625.417 308.62 627.773 308.164 630.813 307.708C634.005 307.1 637.349 306.796 640.845 306.796C647.533 306.796 652.701 308.012 656.349 310.444C660.149 312.724 662.049 317.664 662.049 325.264V339.856H691.917C692.829 341.528 693.665 343.656 694.425 346.24C695.337 348.672 695.793 351.408 695.793 354.448C695.793 359.768 694.577 363.644 692.145 366.076C689.865 368.356 686.749 369.496 682.797 369.496H662.049V403.924ZM838.154 408.028C836.178 409.7 833.594 411.068 830.402 412.132C827.362 413.044 823.79 413.5 819.686 413.5C814.214 413.5 809.654 412.816 806.006 411.448C802.51 410.08 800.23 407.724 799.166 404.38C794.91 391.004 791.414 380.212 788.678 372.004C785.942 363.644 783.814 356.348 782.294 350.116H781.154C780.698 359.084 780.318 367.292 780.014 374.74C779.862 382.036 779.71 389.18 779.558 396.172C779.558 403.164 779.406 410.232 779.102 417.376C778.95 424.52 778.646 432.424 778.19 441.088C776.214 441.848 773.63 442.456 770.438 442.912C767.246 443.52 764.054 443.824 760.862 443.824C754.174 443.824 748.93 442.76 745.13 440.632C741.482 438.504 739.658 434.628 739.658 429.004L746.27 312.724C747.486 310.748 750.146 308.62 754.25 306.34C758.354 304.06 764.13 302.92 771.578 302.92C779.634 302.92 785.942 304.212 790.502 306.796C795.062 309.228 798.406 313.256 800.534 318.88C801.902 322.528 803.346 326.708 804.866 331.42C806.538 336.132 808.134 340.996 809.654 346.012C811.326 351.028 812.922 356.044 814.442 361.06C815.962 365.924 817.33 370.332 818.546 374.284H819.686C823.334 361.516 826.982 349.204 830.63 337.348C834.278 325.34 837.622 315.308 840.662 307.252C842.943 306.036 845.831 305.048 849.327 304.288C852.975 303.376 857.002 302.92 861.41 302.92C868.858 302.92 874.938 304.06 879.65 306.34C884.362 308.468 887.098 311.584 887.858 315.688C888.466 318.728 889.074 323.44 889.682 329.824C890.442 336.056 891.202 343.124 891.962 351.028C892.722 358.932 893.482 367.292 894.242 376.108C895.002 384.924 895.686 393.436 896.294 401.644C897.054 409.7 897.662 417.148 898.118 423.988C898.575 430.676 898.879 435.844 899.031 439.492C896.446 441.012 893.71 442.076 890.822 442.684C888.086 443.444 884.514 443.824 880.106 443.824C874.331 443.824 869.467 442.836 865.514 440.86C861.562 438.884 859.434 435.008 859.13 429.232C858.219 412.664 857.61 397.768 857.306 384.544C857.154 371.32 856.85 360.224 856.394 351.256H855.254C853.734 357.184 851.53 364.632 848.642 373.6C845.754 382.568 842.258 394.044 838.154 408.028ZM993.85 417.376C996.434 417.376 999.246 417.148 1002.29 416.692C1005.48 416.084 1007.83 415.324 1009.35 414.412V396.172L992.938 397.54C988.682 397.844 985.186 398.756 982.45 400.276C979.714 401.796 978.346 404.076 978.346 407.116C978.346 410.156 979.486 412.664 981.766 414.64C984.198 416.464 988.226 417.376 993.85 417.376ZM992.026 327.772C1000.23 327.772 1007.68 328.608 1014.37 330.28C1021.21 331.952 1026.99 334.536 1031.7 338.032C1036.56 341.376 1040.29 345.708 1042.87 351.028C1045.45 356.196 1046.75 362.352 1046.75 369.496V420.568C1046.75 424.52 1045.61 427.788 1043.33 430.372C1041.2 432.804 1038.61 434.932 1035.57 436.756C1025.69 442.684 1011.79 445.648 993.85 445.648C985.794 445.648 978.498 444.888 971.962 443.368C965.578 441.848 960.03 439.568 955.318 436.528C950.758 433.488 947.186 429.612 944.602 424.9C942.17 420.188 940.954 414.716 940.954 408.484C940.954 397.996 944.07 389.94 950.302 384.316C956.534 378.692 966.186 375.196 979.258 373.828L1009.13 370.636V369.04C1009.13 364.632 1007.15 361.516 1003.2 359.692C999.398 357.716 993.85 356.728 986.554 356.728C980.778 356.728 975.154 357.336 969.682 358.552C964.21 359.768 959.27 361.288 954.862 363.112C952.886 361.744 951.214 359.692 949.846 356.956C948.478 354.068 947.794 351.104 947.794 348.064C947.794 344.112 948.706 340.996 950.53 338.716C952.506 336.284 955.47 334.232 959.422 332.56C963.83 330.888 968.998 329.672 974.926 328.912C981.006 328.152 986.706 327.772 992.026 327.772ZM1165.75 371.776C1165.75 367.064 1164.38 363.644 1161.65 361.516C1159.06 359.236 1155.49 358.096 1150.93 358.096C1147.89 358.096 1144.85 358.476 1141.81 359.236C1138.92 359.996 1136.41 361.136 1134.29 362.656V441.772C1132.77 442.228 1130.33 442.684 1126.99 443.14C1123.8 443.596 1120.45 443.824 1116.96 443.824C1113.61 443.824 1110.57 443.596 1107.84 443.14C1105.25 442.684 1103.05 441.772 1101.23 440.404C1099.4 439.036 1097.96 437.212 1096.89 434.932C1095.98 432.5 1095.53 429.384 1095.53 425.584V357.184C1095.53 353.08 1096.36 349.736 1098.03 347.152C1099.86 344.568 1102.29 342.212 1105.33 340.084C1110.5 336.436 1116.96 333.472 1124.71 331.192C1132.61 328.912 1141.35 327.772 1150.93 327.772C1168.11 327.772 1181.33 331.572 1190.6 339.172C1199.87 346.62 1204.51 357.032 1204.51 370.408V441.772C1202.99 442.228 1200.56 442.684 1197.21 443.14C1194.02 443.596 1190.68 443.824 1187.18 443.824C1183.84 443.824 1180.8 443.596 1178.06 443.14C1175.48 442.684 1173.27 441.772 1171.45 440.404C1169.63 439.036 1168.18 437.212 1167.12 434.932C1166.21 432.5 1165.75 429.384 1165.75 425.584V371.776ZM1252.62 300.412C1252.62 294.636 1254.52 289.772 1258.32 285.82C1262.27 281.868 1267.44 279.892 1273.82 279.892C1280.21 279.892 1285.3 281.868 1289.1 285.82C1293.05 289.772 1295.03 294.636 1295.03 300.412C1295.03 306.188 1293.05 311.052 1289.1 315.004C1285.3 318.956 1280.21 320.932 1273.82 320.932C1267.44 320.932 1262.27 318.956 1258.32 315.004C1254.52 311.052 1252.62 306.188 1252.62 300.412ZM1293.2 441.772C1291.53 442.076 1289.02 442.456 1285.68 442.912C1282.49 443.52 1279.22 443.824 1275.88 443.824C1272.53 443.824 1269.49 443.596 1266.76 443.14C1264.17 442.684 1261.97 441.772 1260.14 440.404C1258.32 439.036 1256.88 437.212 1255.81 434.932C1254.9 432.5 1254.44 429.384 1254.44 425.584V332.788C1256.12 332.484 1258.55 332.104 1261.74 331.648C1265.08 331.04 1268.43 330.736 1271.77 330.736C1275.12 330.736 1278.08 330.964 1280.66 331.42C1283.4 331.876 1285.68 332.788 1287.5 334.156C1289.33 335.524 1290.7 337.424 1291.61 339.856C1292.67 342.136 1293.2 345.176 1293.2 348.976V441.772ZM1390.38 417.376C1392.97 417.376 1395.78 417.148 1398.82 416.692C1402.01 416.084 1404.37 415.324 1405.89 414.412V396.172L1389.47 397.54C1385.22 397.844 1381.72 398.756 1378.98 400.276C1376.25 401.796 1374.88 404.076 1374.88 407.116C1374.88 410.156 1376.02 412.664 1378.3 414.64C1380.73 416.464 1384.76 417.376 1390.38 417.376ZM1388.56 327.772C1396.77 327.772 1404.22 328.608 1410.9 330.28C1417.74 331.952 1423.52 334.536 1428.23 338.032C1433.1 341.376 1436.82 345.708 1439.4 351.028C1441.99 356.196 1443.28 362.352 1443.28 369.496V420.568C1443.28 424.52 1442.14 427.788 1439.86 430.372C1437.73 432.804 1435.15 434.932 1432.11 436.756C1422.23 442.684 1408.32 445.648 1390.38 445.648C1382.33 445.648 1375.03 444.888 1368.5 443.368C1362.11 441.848 1356.56 439.568 1351.85 436.528C1347.29 433.488 1343.72 429.612 1341.14 424.9C1338.7 420.188 1337.49 414.716 1337.49 408.484C1337.49 397.996 1340.6 389.94 1346.84 384.316C1353.07 378.692 1362.72 375.196 1375.79 373.828L1405.66 370.636V369.04C1405.66 364.632 1403.68 361.516 1399.73 359.692C1395.93 357.716 1390.38 356.728 1383.09 356.728C1377.31 356.728 1371.69 357.336 1366.22 358.552C1360.74 359.768 1355.8 361.288 1351.4 363.112C1349.42 361.744 1347.75 359.692 1346.38 356.956C1345.01 354.068 1344.33 351.104 1344.33 348.064C1344.33 344.112 1345.24 340.996 1347.06 338.716C1349.04 336.284 1352 334.232 1355.96 332.56C1360.36 330.888 1365.53 329.672 1371.46 328.912C1377.54 328.152 1383.24 327.772 1388.56 327.772Z" fill="#FFC107"/>
<path d="M388.168 363.568L389.475 365.082L389.48 365.077L388.168 363.568ZM387.94 336.664L386.591 338.141L386.625 338.171L386.66 338.2L387.94 336.664ZM366.28 332.104V334.104H366.371L366.461 334.096L366.28 332.104ZM361.492 332.56L361.134 330.592L359.492 330.891V332.56H361.492ZM361.492 367.9H359.492V369.9H361.492V367.9ZM361.72 441.088L362.246 443.018L363.72 442.616V441.088H361.72ZM353.74 442.456L353.492 440.471L353.481 440.473L353.74 442.456ZM333.904 442.228L334.338 440.276L334.295 440.266L334.252 440.258L333.904 442.228ZM327.292 439.492L326.092 441.092L326.092 441.092L327.292 439.492ZM323.188 433.792L321.315 434.494L321.315 434.494L323.188 433.792ZM324.328 309.532L325.742 310.946L325.742 310.946L324.328 309.532ZM331.624 305.2L332.285 307.088L332.29 307.086L331.624 305.2ZM349.18 301.324L349.411 303.311L349.431 303.308L349.45 303.306L349.18 301.324ZM417.352 313.408L416.095 314.963L417.352 313.408ZM430.348 370.18L428.491 369.437L428.486 369.45L428.481 369.462L430.348 370.18ZM419.86 385.684L421.225 387.146L421.226 387.145L419.86 385.684ZM402.304 395.716L402.924 397.617L402.936 397.613L402.949 397.609L402.304 395.716ZM361.72 399.136V397.136H359.72V399.136H361.72ZM373.576 369.9C380.23 369.9 385.636 368.398 389.475 365.082L386.861 362.054C384.012 364.514 379.69 365.9 373.576 365.9V369.9ZM389.48 365.077C393.54 361.547 395.412 356.355 395.412 349.888H391.412C391.412 355.581 389.788 359.509 386.856 362.059L389.48 365.077ZM395.412 349.888C395.412 343.659 393.423 338.629 389.22 335.128L386.66 338.2C389.753 340.779 391.412 344.565 391.412 349.888H395.412ZM389.289 335.187C385.289 331.535 379.555 329.876 372.436 329.876V333.876C378.997 333.876 383.599 335.409 386.591 338.141L389.289 335.187ZM372.436 329.876C369.968 329.876 367.851 329.953 366.099 330.112L366.461 334.096C368.053 333.951 370.04 333.876 372.436 333.876V329.876ZM366.28 330.104C364.627 330.104 362.911 330.269 361.134 330.592L361.85 334.528C363.417 334.243 364.893 334.104 366.28 334.104V330.104ZM359.492 332.56V367.9H363.492V332.56H359.492ZM361.492 369.9H373.576V365.9H361.492V369.9ZM361.194 439.158C359.667 439.575 357.126 440.017 353.492 440.471L353.988 444.441C357.65 443.983 360.429 443.513 362.246 443.018L361.194 439.158ZM353.481 440.473C350.07 440.918 346.661 441.14 343.252 441.14V445.14C346.835 445.14 350.418 444.906 353.999 444.439L353.481 440.473ZM343.252 441.14C339.868 441.14 336.902 440.845 334.338 440.276L333.47 444.18C336.378 444.827 339.644 445.14 343.252 445.14V441.14ZM334.252 440.258C331.93 439.849 330.029 439.045 328.492 437.892L326.092 441.092C328.203 442.675 330.71 443.695 333.556 444.198L334.252 440.258ZM328.492 437.892C327.014 436.784 325.858 435.216 325.061 433.09L321.315 434.494C322.342 437.232 323.922 439.464 326.092 441.092L328.492 437.892ZM325.061 433.09C324.265 430.968 323.82 428.04 323.82 424.216H319.82C319.82 428.296 320.287 431.752 321.315 434.494L325.061 433.09ZM323.82 424.216V316.828H319.82V424.216H323.82ZM323.82 316.828C323.82 313.976 324.562 312.127 325.742 310.946L322.914 308.118C320.75 310.281 319.82 313.296 319.82 316.828H323.82ZM325.742 310.946C327.308 309.381 329.46 308.077 332.285 307.088L330.963 303.312C327.708 304.451 324.996 306.035 322.914 308.118L325.742 310.946ZM332.29 307.086C337.292 305.32 342.995 304.057 349.411 303.311L348.949 299.337C342.293 300.111 336.292 301.432 330.958 303.314L332.29 307.086ZM349.45 303.306C356.05 302.406 362.647 301.956 369.244 301.956V297.956C362.465 297.956 355.687 298.418 348.91 299.342L349.45 303.306ZM369.244 301.956C389.97 301.956 405.488 306.391 416.095 314.963L418.609 311.853C407.024 302.489 390.47 297.956 369.244 297.956V301.956ZM416.095 314.963C426.682 323.52 431.996 335.087 431.996 349.888H435.996C435.996 333.985 430.214 321.232 418.609 311.853L416.095 314.963ZM431.996 349.888C431.996 357.116 430.816 363.624 428.491 369.437L432.205 370.923C434.744 364.576 435.996 357.556 435.996 349.888H431.996ZM428.481 369.462C426.312 375.103 422.989 380.019 418.494 384.223L421.226 387.145C426.155 382.533 429.824 377.113 432.215 370.898L428.481 369.462ZM418.495 384.222C414.181 388.249 408.591 391.463 401.659 393.823L402.949 397.609C410.305 395.105 416.419 391.631 421.225 387.146L418.495 384.222ZM401.684 393.815C394.936 396.015 387.022 397.136 377.908 397.136V401.136C387.338 401.136 395.688 399.977 402.924 397.617L401.684 393.815ZM377.908 397.136H361.72V401.136H377.908V397.136ZM359.72 399.136V441.088H363.72V399.136H359.72ZM506.593 442L505.949 443.894L505.971 443.901L505.994 443.908L506.593 442ZM486.529 430.6L485.197 432.093L485.207 432.101L485.217 432.11L486.529 430.6ZM473.077 411.676L471.233 412.45L471.239 412.466L471.246 412.481L473.077 411.676ZM473.077 359.236L471.258 358.403L471.255 358.411L471.251 358.42L473.077 359.236ZM486.073 341.452L487.374 342.971L487.387 342.96L487.399 342.949L486.073 341.452ZM504.313 331.192L504.907 333.102L504.926 333.096L504.945 333.089L504.313 331.192ZM547.177 331.42L546.479 333.294L546.486 333.297L546.493 333.3L547.177 331.42ZM564.277 341.452L562.936 342.936L562.948 342.947L562.96 342.957L564.277 341.452ZM575.449 356.728L573.615 357.527L573.624 357.547L573.633 357.566L575.449 356.728ZM575.221 387.964L573.845 386.512L573.845 386.512L575.221 387.964ZM563.137 393.208L562.846 391.229L562.84 391.23L563.137 393.208ZM506.821 401.644L506.524 399.666L504.171 400.019L504.923 402.276L506.821 401.644ZM517.081 413.044L516.186 414.833L516.207 414.843L516.229 414.854L517.081 413.044ZM552.421 414.412L552.956 416.339L552.973 416.334L552.991 416.329L552.421 414.412ZM566.101 408.712L567.161 407.016L566.115 406.362L565.061 407.004L566.101 408.712ZM572.257 415.096L573.963 414.053L573.963 414.053L572.257 415.096ZM565.189 439.036L564.261 437.264L564.25 437.27L565.189 439.036ZM548.773 444.28L548.476 442.302L548.476 442.302L548.773 444.28ZM515.713 357.868L514.9 356.04L514.881 356.049L514.861 356.058L515.713 357.868ZM509.329 362.656L510.803 364.007L510.83 363.978L510.855 363.948L509.329 362.656ZM505.453 369.04L503.58 368.338L503.567 368.372L503.555 368.408L505.453 369.04ZM504.085 376.108L502.089 375.983L501.932 378.487L504.408 378.082L504.085 376.108ZM543.073 369.724L543.396 371.698L545.343 371.379L545.051 369.427L543.073 369.724ZM538.057 360.604L539.507 359.226L539.507 359.226L538.057 360.604ZM531.673 443.648C522.887 443.648 514.731 442.457 507.191 440.092L505.994 443.908C513.959 446.407 522.522 447.648 531.673 447.648V443.648ZM507.236 440.106C499.869 437.602 493.411 433.928 487.84 429.09L485.217 432.11C491.198 437.304 498.116 441.23 505.949 443.894L507.236 440.106ZM487.86 429.107C482.471 424.301 478.148 418.235 474.907 410.871L471.246 412.481C474.693 420.317 479.339 426.867 485.197 432.093L487.86 429.107ZM474.921 410.902C471.853 403.597 470.289 394.979 470.289 385H466.289C466.289 395.389 467.917 404.555 471.233 412.45L474.921 410.902ZM470.289 385C470.289 375.173 471.853 366.878 474.903 360.052L471.251 358.42C467.916 365.882 466.289 374.763 466.289 385H470.289ZM474.895 360.069C478.136 352.998 482.304 347.317 487.374 342.971L484.771 339.933C479.202 344.707 474.706 350.882 471.258 358.403L474.895 360.069ZM487.399 342.949C492.505 338.426 498.335 335.146 504.907 333.102L503.718 329.282C496.61 331.494 490.28 335.053 484.747 339.955L487.399 342.949ZM504.945 333.089C511.583 330.877 518.362 329.772 525.289 329.772V325.772C517.928 325.772 510.722 326.947 503.68 329.295L504.945 333.089ZM525.289 329.772C533.143 329.772 540.198 330.957 546.479 333.294L547.874 329.546C541.083 327.019 533.546 325.772 525.289 325.772V329.772ZM546.493 333.3C552.968 335.654 558.437 338.873 562.936 342.936L565.617 339.968C560.692 335.519 554.761 332.05 547.86 329.54L546.493 333.3ZM562.96 342.957C567.601 347.019 571.149 351.87 573.615 357.527L577.282 355.929C574.58 349.73 570.68 344.397 565.594 339.947L562.96 342.957ZM573.633 357.566C576.239 363.213 577.553 369.385 577.553 376.108H581.553C581.553 368.847 580.13 362.099 577.265 355.89L573.633 357.566ZM577.553 376.108C577.553 380.9 576.224 384.258 573.845 386.512L576.596 389.416C579.993 386.198 581.553 381.652 581.553 376.108H577.553ZM573.845 386.512C571.337 388.888 567.733 390.511 562.846 391.229L563.428 395.187C568.876 394.385 573.329 392.512 576.596 389.416L573.845 386.512ZM562.84 391.23L506.524 399.666L507.117 403.622L563.433 395.186L562.84 391.23ZM504.923 402.276C506.779 407.845 510.592 412.036 516.186 414.833L517.975 411.255C513.233 408.884 510.206 405.475 508.718 401.012L504.923 402.276ZM516.229 414.854C521.705 417.431 527.932 418.692 534.865 418.692V414.692C528.421 414.692 522.792 413.521 517.932 411.234L516.229 414.854ZM534.865 418.692C541.26 418.692 547.294 417.912 552.956 416.339L551.885 412.485C546.604 413.952 540.933 414.692 534.865 414.692V418.692ZM552.991 416.329C558.715 414.627 563.449 412.667 567.141 410.42L565.061 407.004C561.76 409.013 557.375 410.853 551.851 412.495L552.991 416.329ZM565.041 410.408C567.18 411.745 569.021 413.636 570.55 416.139L573.963 414.053C572.149 411.084 569.886 408.719 567.161 407.016L565.041 410.408ZM570.55 416.139C572.041 418.579 572.765 421.109 572.765 423.76H576.765C576.765 420.331 575.816 417.085 573.963 414.053L570.55 416.139ZM572.765 423.76C572.765 426.857 572.046 429.461 570.676 431.647C569.303 433.838 567.201 435.724 564.261 437.264L566.117 440.808C569.56 439.004 572.247 436.672 574.065 433.771C575.887 430.865 576.765 427.503 576.765 423.76H572.765ZM564.25 437.27C559.609 439.736 554.357 441.42 548.476 442.302L549.069 446.258C555.348 445.316 561.041 443.504 566.127 440.802L564.25 437.27ZM548.476 442.302C542.479 443.202 536.879 443.648 531.673 443.648V447.648C537.106 447.648 542.906 447.182 549.069 446.258L548.476 442.302ZM525.289 354.044C521.421 354.044 517.942 354.689 514.9 356.04L516.525 359.696C518.956 358.615 521.861 358.044 525.289 358.044V354.044ZM514.861 356.058C512.044 357.384 509.678 359.147 507.802 361.364L510.855 363.948C512.324 362.213 514.213 360.784 516.564 359.678L514.861 356.058ZM507.854 361.305C506.001 363.327 504.577 365.678 503.58 368.338L507.325 369.742C508.152 367.538 509.313 365.633 510.803 364.007L507.854 361.305ZM503.555 368.408C502.74 370.854 502.251 373.381 502.089 375.983L506.081 376.233C506.222 373.971 506.646 371.786 507.35 369.672L503.555 368.408ZM504.408 378.082L543.396 371.698L542.749 367.75L503.761 374.134L504.408 378.082ZM545.051 369.427C544.515 365.858 542.577 362.458 539.507 359.226L536.607 361.981C539.313 364.83 540.718 367.51 541.095 370.021L545.051 369.427ZM539.507 359.226C536.125 355.667 531.266 354.044 525.289 354.044V358.044C530.559 358.044 534.212 359.461 536.607 361.981L539.507 359.226ZM665.697 412.36L664.564 414.008L664.587 414.024L664.611 414.039L665.697 412.36ZM683.481 414.412L683.73 416.397L683.79 416.389L683.85 416.378L683.481 414.412ZM689.865 412.816L691.413 411.55L690.541 410.483L689.233 410.919L689.865 412.816ZM693.285 418.516L691.447 419.304L691.482 419.386L691.525 419.464L693.285 418.516ZM688.269 439.948L686.994 438.407L686.981 438.418L686.968 438.429L688.269 439.948ZM634.461 436.3L633.165 437.823L633.173 437.83L633.181 437.836L634.461 436.3ZM623.745 309.076L623.219 307.146L621.745 307.548V309.076H623.745ZM630.813 307.708L631.11 309.686L631.149 309.68L631.188 309.673L630.813 307.708ZM656.349 310.444L655.24 312.108L655.28 312.134L655.32 312.159L656.349 310.444ZM662.049 339.856H660.049V341.856H662.049V339.856ZM691.917 339.856L693.673 338.898L693.105 337.856H691.917V339.856ZM694.425 346.24L692.507 346.804L692.527 346.874L692.553 346.942L694.425 346.24ZM662.049 369.496V367.496H660.049V369.496H662.049ZM660.049 403.924C660.049 408.289 661.415 411.843 664.564 414.008L666.831 410.712C665.116 409.533 664.049 407.463 664.049 403.924H660.049ZM664.611 414.039C667.639 415.999 671.642 416.868 676.413 416.868V412.868C672.064 412.868 668.924 412.065 666.784 410.681L664.611 414.039ZM676.413 416.868C678.782 416.868 681.221 416.71 683.73 416.397L683.233 412.427C680.878 412.722 678.605 412.868 676.413 412.868V416.868ZM683.85 416.378C686.348 415.909 688.567 415.357 690.498 414.713L689.233 410.919C687.516 411.491 685.479 412.003 683.113 412.446L683.85 416.378ZM688.318 414.082C689.559 415.599 690.604 417.336 691.447 419.304L695.124 417.728C694.143 415.44 692.908 413.377 691.413 411.55L688.318 414.082ZM691.525 419.464C692.393 421.077 692.881 423.163 692.881 425.812H696.881C696.881 422.685 696.306 419.907 695.046 417.568L691.525 419.464ZM692.881 425.812C692.881 430.999 690.938 435.143 686.994 438.407L689.545 441.489C694.417 437.457 696.881 432.177 696.881 425.812H692.881ZM686.968 438.429C683.289 441.583 676.327 443.42 665.469 443.42V447.42C676.5 447.42 684.738 445.609 689.571 441.467L686.968 438.429ZM665.469 443.42C652.373 443.42 642.556 440.442 635.742 434.764L633.181 437.836C640.959 444.318 651.814 447.42 665.469 447.42V443.42ZM635.758 434.777C629.234 429.225 625.745 420.029 625.745 406.66H621.745C621.745 420.651 625.401 431.215 633.165 437.823L635.758 434.777ZM625.745 406.66V309.076H621.745V406.66H625.745ZM624.272 311.006C625.832 310.58 628.098 310.138 631.11 309.686L630.517 305.73C627.449 306.19 625.003 306.66 623.219 307.146L624.272 311.006ZM631.188 309.673C634.247 309.09 637.466 308.796 640.845 308.796V304.796C637.233 304.796 633.763 305.11 630.439 305.743L631.188 309.673ZM640.845 308.796C647.332 308.796 652.051 309.982 655.24 312.108L657.459 308.78C653.352 306.042 647.735 304.796 640.845 304.796V308.796ZM655.32 312.159C658.181 313.875 660.049 317.855 660.049 325.264H664.049C664.049 317.473 662.118 311.573 657.378 308.729L655.32 312.159ZM660.049 325.264V339.856H664.049V325.264H660.049ZM662.049 341.856H691.917V337.856H662.049V341.856ZM690.162 340.814C690.984 342.321 691.772 344.306 692.507 346.804L696.344 345.676C695.559 343.006 694.675 340.735 693.673 338.898L690.162 340.814ZM692.553 346.942C693.368 349.115 693.793 351.608 693.793 354.448H697.793C697.793 351.208 697.307 348.229 696.298 345.538L692.553 346.942ZM693.793 354.448C693.793 359.521 692.627 362.766 690.731 364.662L693.56 367.49C696.528 364.522 697.793 360.015 697.793 354.448H693.793ZM690.731 364.662C688.908 366.485 686.346 367.496 682.797 367.496V371.496C687.153 371.496 690.823 370.227 693.56 367.49L690.731 364.662ZM682.797 367.496H662.049V371.496H682.797V367.496ZM660.049 369.496V403.924H664.049V369.496H660.049ZM838.154 408.028L839.446 409.555L839.905 409.167L840.074 408.591L838.154 408.028ZM830.402 412.132L830.977 414.048L831.006 414.039L831.035 414.029L830.402 412.132ZM806.006 411.448L805.278 413.31L805.291 413.316L805.304 413.321L806.006 411.448ZM799.166 404.38L797.261 404.986L797.261 404.986L799.166 404.38ZM788.678 372.004L786.778 372.626L786.781 372.636L788.678 372.004ZM782.294 350.116L784.238 349.642L783.865 348.116H782.294V350.116ZM781.154 350.116V348.116H779.254L779.157 350.014L781.154 350.116ZM780.014 374.74L778.016 374.658L778.015 374.678L778.015 374.698L780.014 374.74ZM779.558 396.172L777.559 396.129L777.558 396.15V396.172H779.558ZM779.102 417.376L777.104 417.291L777.103 417.312L777.103 417.333L779.102 417.376ZM778.19 441.088L778.908 442.955L780.12 442.489L780.188 441.193L778.19 441.088ZM770.438 442.912L770.156 440.932L770.11 440.939L770.064 440.947L770.438 442.912ZM745.13 440.632L744.123 442.36L744.138 442.368L744.153 442.377L745.13 440.632ZM739.658 429.004L737.662 428.89L737.658 428.947V429.004H739.658ZM746.27 312.724L744.567 311.676L744.302 312.106L744.274 312.61L746.27 312.724ZM790.502 306.796L789.516 308.536L789.539 308.549L789.561 308.561L790.502 306.796ZM800.534 318.88L802.407 318.178L802.405 318.172L800.534 318.88ZM804.866 331.42L802.963 332.034L802.972 332.062L802.982 332.089L804.866 331.42ZM809.654 346.012L807.74 346.592L807.748 346.618L807.757 346.644L809.654 346.012ZM814.442 361.06L812.528 361.64L812.531 361.648L812.534 361.657L814.442 361.06ZM818.546 374.284L816.635 374.872L817.069 376.284H818.546V374.284ZM819.686 374.284V376.284H821.195L821.61 374.833L819.686 374.284ZM830.63 337.348L832.542 337.936L832.544 337.929L830.63 337.348ZM840.662 307.252L839.721 305.487L839.057 305.842L838.791 306.546L840.662 307.252ZM849.327 304.288L849.751 306.242L849.782 306.236L849.812 306.228L849.327 304.288ZM879.65 306.34L878.779 308.14L878.803 308.152L878.827 308.163L879.65 306.34ZM887.858 315.688L885.892 316.052L885.895 316.066L885.897 316.08L887.858 315.688ZM889.682 329.824L887.692 330.014L887.694 330.04L887.697 330.066L889.682 329.824ZM896.294 401.644L894.3 401.792L894.301 401.812L894.303 401.832L896.294 401.644ZM898.118 423.988L896.123 424.121L896.123 424.124L898.118 423.988ZM899.031 439.492L900.045 441.216L901.079 440.608L901.029 439.409L899.031 439.492ZM890.822 442.684L890.41 440.727L890.348 440.74L890.287 440.757L890.822 442.684ZM859.13 429.232L861.128 429.127L861.127 429.122L859.13 429.232ZM857.306 384.544L855.307 384.567L855.307 384.578L855.307 384.59L857.306 384.544ZM856.394 351.256L858.392 351.154L858.295 349.256H856.394V351.256ZM855.254 351.256V349.256H853.703L853.317 350.759L855.254 351.256ZM848.642 373.6L850.546 374.213L850.546 374.213L848.642 373.6ZM836.863 406.501C835.129 407.968 832.79 409.228 829.77 410.235L831.035 414.029C834.399 412.908 837.227 411.432 839.446 409.555L836.863 406.501ZM829.828 410.216C827.02 411.059 823.65 411.5 819.686 411.5V415.5C823.931 415.5 827.705 415.029 830.977 414.048L829.828 410.216ZM819.686 411.5C814.365 411.5 810.061 410.833 806.709 409.575L805.304 413.321C809.248 414.799 814.064 415.5 819.686 415.5V411.5ZM806.735 409.586C803.756 408.42 801.939 406.498 801.072 403.774L797.261 404.986C798.522 408.95 801.265 411.74 805.278 413.31L806.735 409.586ZM801.072 403.774C796.815 390.394 793.316 379.592 790.576 371.372L786.781 372.636C789.513 380.832 793.006 391.614 797.261 404.986L801.072 403.774ZM790.579 371.382C787.854 363.054 785.742 355.81 784.238 349.642L780.351 350.59C781.887 356.886 784.031 364.234 786.778 372.626L790.579 371.382ZM782.294 348.116H781.154V352.116H782.294V348.116ZM779.157 350.014C778.701 358.988 778.32 367.203 778.016 374.658L782.013 374.822C782.317 367.381 782.696 359.18 783.152 350.218L779.157 350.014ZM778.015 374.698C777.863 381.994 777.711 389.137 777.559 396.129L781.558 396.215C781.71 389.223 781.862 382.078 782.014 374.782L778.015 374.698ZM777.558 396.172C777.558 403.135 777.407 410.175 777.104 417.291L781.101 417.461C781.406 410.289 781.558 403.193 781.558 396.172H777.558ZM777.103 417.333C776.951 424.453 776.648 432.335 776.193 440.983L780.188 441.193C780.645 432.513 780.95 424.587 781.102 417.419L777.103 417.333ZM777.473 439.221C775.689 439.907 773.268 440.488 770.156 440.932L770.721 444.892C773.993 444.424 776.739 443.789 778.908 442.955L777.473 439.221ZM770.064 440.947C766.993 441.532 763.927 441.824 760.862 441.824V445.824C764.182 445.824 767.5 445.508 770.813 444.877L770.064 440.947ZM760.862 441.824C754.349 441.824 749.491 440.782 746.108 438.887L744.153 442.377C748.37 444.738 754 445.824 760.862 445.824V441.824ZM746.138 438.904C743.306 437.252 741.658 434.185 741.658 429.004H737.658C737.658 435.071 739.659 439.756 744.123 442.36L746.138 438.904ZM741.655 429.118L748.267 312.838L744.274 312.61L737.662 428.89L741.655 429.118ZM747.974 313.772C748.904 312.261 751.169 310.34 755.222 308.088L753.279 304.592C749.124 306.9 746.069 309.235 744.567 311.676L747.974 313.772ZM755.222 308.088C758.903 306.043 764.291 304.92 771.578 304.92V300.92C763.97 300.92 757.806 302.077 753.279 304.592L755.222 308.088ZM771.578 304.92C779.459 304.92 785.377 306.19 789.516 308.536L791.489 305.056C786.508 302.234 779.81 300.92 771.578 300.92V304.92ZM789.561 308.561C793.625 310.728 796.678 314.339 798.664 319.588L802.405 318.172C800.135 312.173 796.5 307.728 791.444 305.031L789.561 308.561ZM798.662 319.582C800.016 323.195 801.45 327.344 802.963 332.034L806.77 330.806C805.243 326.072 803.789 321.861 802.407 318.178L798.662 319.582ZM802.982 332.089C804.643 336.77 806.229 341.604 807.74 346.592L811.569 345.432C810.04 340.388 808.434 335.494 806.751 330.751L802.982 332.089ZM807.757 346.644C809.423 351.643 811.014 356.642 812.528 361.64L816.357 360.48C814.831 355.446 813.23 350.413 811.552 345.38L807.757 346.644ZM812.534 361.657C814.053 366.518 815.42 370.924 816.635 374.872L820.458 373.696C819.241 369.74 817.872 365.33 816.351 360.463L812.534 361.657ZM818.546 376.284H819.686V372.284H818.546V376.284ZM821.61 374.833C825.254 362.077 828.898 349.778 832.542 337.936L828.719 336.76C825.067 348.63 821.415 360.955 817.763 373.735L821.61 374.833ZM832.544 337.929C836.185 325.946 839.514 315.959 842.534 307.958L838.791 306.546C835.731 314.657 832.372 324.734 828.717 336.767L832.544 337.929ZM841.604 309.017C843.672 307.913 846.372 306.977 849.751 306.242L848.902 302.334C845.289 303.119 842.213 304.159 839.721 305.487L841.604 309.017ZM849.812 306.228C853.276 305.362 857.139 304.92 861.41 304.92V300.92C856.866 300.92 852.673 301.39 848.841 302.348L849.812 306.228ZM861.41 304.92C868.676 304.92 874.429 306.035 878.779 308.14L880.522 304.54C875.448 302.085 869.041 300.92 861.41 300.92V304.92ZM878.827 308.163C883.103 310.094 885.28 312.748 885.892 316.052L889.825 315.324C888.917 310.42 885.622 306.842 880.474 304.517L878.827 308.163ZM885.897 316.08C886.484 319.015 887.085 323.642 887.692 330.014L891.673 329.634C891.064 323.238 890.449 318.441 889.82 315.296L885.897 316.08ZM887.697 330.066C888.455 336.278 889.213 343.328 889.972 351.219L893.953 350.837C893.192 342.92 892.43 335.834 891.668 329.582L887.697 330.066ZM889.972 351.219C890.731 359.116 891.49 367.47 892.25 376.28L896.235 375.936C895.475 367.114 894.714 358.748 893.953 350.837L889.972 351.219ZM892.25 376.28C893.009 385.088 893.693 393.592 894.3 401.792L898.289 401.496C897.68 393.28 896.996 384.76 896.235 375.936L892.25 376.28ZM894.303 401.832C895.062 409.873 895.668 417.302 896.123 424.121L900.114 423.855C899.657 416.994 899.047 409.527 898.286 401.456L894.303 401.832ZM896.123 424.124C896.579 430.806 896.881 435.954 897.032 439.575L901.029 439.409C900.876 435.734 900.57 430.546 900.114 423.852L896.123 424.124ZM898.016 437.768C895.616 439.18 893.083 440.164 890.41 440.727L891.235 444.641C894.338 443.988 897.277 442.844 900.045 441.216L898.016 437.768ZM890.287 440.757C887.794 441.45 884.422 441.824 880.106 441.824V445.824C884.607 445.824 888.379 445.438 891.358 444.611L890.287 440.757ZM880.106 441.824C874.549 441.824 870.011 440.872 866.409 439.071L864.62 442.649C868.922 444.8 874.112 445.824 880.106 445.824V441.824ZM866.409 439.071C863.301 437.517 861.407 434.44 861.128 429.127L857.133 429.337C857.462 435.576 859.824 440.251 864.62 442.649L866.409 439.071ZM861.127 429.122C860.216 412.57 859.609 397.696 859.306 384.498L855.307 384.59C855.612 397.84 856.221 412.758 857.134 429.342L861.127 429.122ZM859.306 384.521C859.154 371.282 858.85 360.158 858.392 351.154L854.397 351.358C854.851 360.29 855.155 371.358 855.307 384.567L859.306 384.521ZM856.394 349.256H855.254V353.256H856.394V349.256ZM853.317 350.759C851.811 356.633 849.62 364.039 846.739 372.987L850.546 374.213C853.441 365.225 855.658 357.735 857.192 351.753L853.317 350.759ZM846.739 372.987C843.843 381.978 840.342 393.472 836.235 407.465L840.074 408.591C844.175 394.616 847.666 383.158 850.546 374.213L846.739 372.987ZM1002.29 416.692L1002.58 418.67L1002.62 418.664L1002.66 418.657L1002.29 416.692ZM1009.35 414.412L1010.38 416.127L1011.35 415.544V414.412H1009.35ZM1009.35 396.172H1011.35V393.998L1009.19 394.179L1009.35 396.172ZM992.938 397.54L993.081 399.535L993.092 399.534L993.104 399.533L992.938 397.54ZM982.45 400.276L981.479 398.528L981.479 398.528L982.45 400.276ZM981.766 414.64L980.456 416.151L980.51 416.198L980.566 416.24L981.766 414.64ZM1014.37 330.28L1013.88 332.22L1013.9 332.223L1014.37 330.28ZM1031.7 338.032L1030.51 339.638L1030.54 339.66L1030.56 339.68L1031.7 338.032ZM1042.87 351.028L1041.07 351.902L1041.08 351.912L1041.08 351.922L1042.87 351.028ZM1043.33 430.372L1041.83 429.049L1041.82 429.055L1043.33 430.372ZM1035.57 436.756L1034.55 435.041L1034.55 435.041L1035.57 436.756ZM971.962 443.368L971.499 445.314L971.509 445.316L971.962 443.368ZM955.318 436.528L954.209 438.192L954.221 438.2L954.234 438.209L955.318 436.528ZM944.602 424.9L942.825 425.817L942.836 425.84L942.848 425.862L944.602 424.9ZM950.302 384.316L948.962 382.831L948.962 382.831L950.302 384.316ZM979.258 373.828L979.466 375.817L979.471 375.817L979.258 373.828ZM1009.13 370.636L1009.34 372.625L1011.13 372.434V370.636H1009.13ZM1003.2 359.692L1002.28 361.466L1002.32 361.488L1002.36 361.508L1003.2 359.692ZM969.682 358.552L969.248 356.6L969.248 356.6L969.682 358.552ZM954.862 363.112L953.724 364.756L954.62 365.377L955.627 364.96L954.862 363.112ZM949.846 356.956L948.039 357.812L948.048 357.831L948.057 357.85L949.846 356.956ZM950.53 338.716L948.978 337.455L948.973 337.461L948.968 337.467L950.53 338.716ZM959.422 332.56L958.713 330.69L958.677 330.703L958.643 330.718L959.422 332.56ZM974.926 328.912L974.678 326.927L974.672 326.928L974.926 328.912ZM993.85 419.376C996.55 419.376 999.462 419.138 1002.58 418.67L1001.99 414.714C999.03 415.158 996.318 415.376 993.85 415.376V419.376ZM1002.66 418.657C1005.92 418.035 1008.56 417.222 1010.38 416.127L1008.33 412.697C1007.11 413.426 1005.03 414.133 1001.91 414.727L1002.66 418.657ZM1011.35 414.412V396.172H1007.35V414.412H1011.35ZM1009.19 394.179L992.772 395.547L993.104 399.533L1009.52 398.165L1009.19 394.179ZM992.796 395.545C988.348 395.863 984.545 396.824 981.479 398.528L983.421 402.024C985.827 400.688 989.016 399.825 993.081 399.535L992.796 395.545ZM981.479 398.528C979.859 399.428 978.551 400.607 977.657 402.097C976.761 403.59 976.346 405.286 976.346 407.116H980.346C980.346 405.906 980.615 404.942 981.087 404.155C981.561 403.365 982.305 402.644 983.421 402.024L981.479 398.528ZM976.346 407.116C976.346 410.731 977.734 413.792 980.456 416.151L983.076 413.129C981.238 411.536 980.346 409.581 980.346 407.116H976.346ZM980.566 416.24C983.534 418.466 988.113 419.376 993.85 419.376V415.376C988.339 415.376 984.862 414.462 982.966 413.04L980.566 416.24ZM992.026 329.772C1000.1 329.772 1007.38 330.595 1013.88 332.22L1014.86 328.34C1007.98 326.621 1000.37 325.772 992.026 325.772V329.772ZM1013.9 332.223C1020.53 333.844 1026.05 336.329 1030.51 339.638L1032.89 336.426C1027.93 332.743 1021.89 330.06 1014.84 328.337L1013.9 332.223ZM1030.56 339.68C1035.14 342.828 1038.64 346.893 1041.07 351.902L1044.67 350.154C1041.93 344.523 1037.98 339.924 1032.83 336.384L1030.56 339.68ZM1041.08 351.922C1043.5 356.755 1044.75 362.591 1044.75 369.496H1048.75C1048.75 362.113 1047.41 355.637 1044.66 350.134L1041.08 351.922ZM1044.75 369.496V420.568H1048.75V369.496H1044.75ZM1044.75 420.568C1044.75 424.109 1043.74 426.884 1041.83 429.049L1044.83 431.695C1047.48 428.692 1048.75 424.931 1048.75 420.568H1044.75ZM1041.82 429.055C1039.84 431.316 1037.42 433.314 1034.55 435.041L1036.6 438.471C1039.8 436.55 1042.55 434.292 1044.83 431.689L1041.82 429.055ZM1034.55 435.041C1025.1 440.706 1011.61 443.648 993.85 443.648V447.648C1011.96 447.648 1026.28 444.662 1036.6 438.471L1034.55 435.041ZM993.85 443.648C985.917 443.648 978.776 442.899 972.415 441.42L971.509 445.316C978.22 446.877 985.671 447.648 993.85 447.648V443.648ZM972.425 441.422C966.225 439.946 960.894 437.746 956.402 434.847L954.234 438.209C959.166 441.39 964.931 443.75 971.499 445.314L972.425 441.422ZM956.427 434.864C952.13 431.999 948.781 428.362 946.356 423.938L942.848 425.862C945.591 430.862 949.386 434.977 954.209 438.192L956.427 434.864ZM946.379 423.983C944.117 419.6 942.954 414.453 942.954 408.484H938.954C938.954 414.979 940.223 420.776 942.825 425.817L946.379 423.983ZM942.954 408.484C942.954 398.41 945.931 390.955 951.642 385.801L948.962 382.831C942.209 388.925 938.954 397.582 938.954 408.484H942.954ZM951.642 385.801C957.427 380.58 966.593 377.164 979.466 375.817L979.05 371.839C965.779 373.228 955.641 376.804 948.962 382.831L951.642 385.801ZM979.471 375.817L1009.34 372.625L1008.91 368.647L979.045 371.839L979.471 375.817ZM1011.13 370.636V369.04H1007.13V370.636H1011.13ZM1011.13 369.04C1011.13 366.531 1010.56 364.262 1009.33 362.326C1008.1 360.388 1006.3 358.92 1004.04 357.876L1002.36 361.508C1004.05 362.288 1005.21 363.29 1005.95 364.468C1006.7 365.648 1007.13 367.141 1007.13 369.04H1011.13ZM1004.12 357.918C999.901 355.723 993.974 354.728 986.554 354.728V358.728C993.726 358.728 998.895 359.709 1002.28 361.466L1004.12 357.918ZM986.554 354.728C980.637 354.728 974.867 355.351 969.248 356.6L970.116 360.504C975.441 359.321 980.919 358.728 986.554 358.728V354.728ZM969.248 356.6C963.682 357.837 958.629 359.389 954.097 361.264L955.627 364.96C959.911 363.187 964.738 361.699 970.116 360.504L969.248 356.6ZM956 361.468C954.366 360.336 952.893 358.577 951.635 356.062L948.057 357.85C949.535 360.807 951.406 363.152 953.724 364.756L956 361.468ZM951.653 356.1C950.406 353.465 949.794 350.793 949.794 348.064H945.794C945.794 351.415 946.55 354.671 948.039 357.812L951.653 356.1ZM949.794 348.064C949.794 344.406 950.637 341.783 952.092 339.965L948.968 337.467C946.775 340.209 945.794 343.818 945.794 348.064H949.794ZM952.082 339.977C953.79 337.875 956.445 335.991 960.201 334.402L958.643 330.718C954.495 332.473 951.222 334.693 948.978 337.455L952.082 339.977ZM960.131 334.43C964.36 332.826 969.369 331.641 975.18 330.896L974.672 326.928C968.627 327.703 963.3 328.95 958.713 330.69L960.131 334.43ZM975.174 330.897C981.184 330.145 986.8 329.772 992.026 329.772V325.772C986.612 325.772 980.828 326.159 974.678 326.927L975.174 330.897ZM1161.65 361.516L1160.32 363.016L1160.37 363.057L1160.42 363.095L1161.65 361.516ZM1141.81 359.236L1141.32 357.296L1141.31 357.299L1141.3 357.302L1141.81 359.236ZM1134.29 362.656L1133.12 361.029L1132.29 361.627V362.656H1134.29ZM1134.29 441.772L1134.86 443.688L1136.29 443.26V441.772H1134.29ZM1126.99 443.14L1126.72 441.158L1126.71 441.16L1126.99 443.14ZM1107.84 443.14L1107.49 445.11L1107.5 445.111L1107.51 445.113L1107.84 443.14ZM1101.23 440.404L1102.43 438.804L1102.43 438.804L1101.23 440.404ZM1096.89 434.932L1095.02 435.634L1095.05 435.707L1095.08 435.778L1096.89 434.932ZM1098.03 347.152L1096.4 345.999L1096.38 346.032L1096.35 346.065L1098.03 347.152ZM1105.33 340.084L1106.48 341.722L1106.48 341.718L1105.33 340.084ZM1124.71 331.192L1124.16 329.27L1124.15 329.273L1124.71 331.192ZM1190.6 339.172L1189.33 340.719L1189.34 340.725L1189.35 340.731L1190.6 339.172ZM1204.51 441.772L1205.08 443.688L1206.51 443.26V441.772H1204.51ZM1197.21 443.14L1196.94 441.158L1196.93 441.16L1197.21 443.14ZM1178.06 443.14L1177.71 445.11L1177.72 445.111L1177.73 445.113L1178.06 443.14ZM1171.45 440.404L1170.25 442.004L1171.45 440.404ZM1167.12 434.932L1165.24 435.634L1165.27 435.707L1165.31 435.778L1167.12 434.932ZM1167.75 371.776C1167.75 366.684 1166.26 362.569 1162.87 359.937L1160.42 363.095C1162.51 364.719 1163.75 367.444 1163.75 371.776H1167.75ZM1162.97 360.016C1159.91 357.322 1155.82 356.096 1150.93 356.096V360.096C1155.16 360.096 1158.21 361.15 1160.32 363.016L1162.97 360.016ZM1150.93 356.096C1147.72 356.096 1144.52 356.497 1141.32 357.296L1142.29 361.176C1145.18 360.455 1148.06 360.096 1150.93 360.096V356.096ZM1141.3 357.302C1138.21 358.115 1135.47 359.349 1133.12 361.029L1135.45 364.283C1137.35 362.923 1139.63 361.877 1142.32 361.17L1141.3 357.302ZM1132.29 362.656V441.772H1136.29V362.656H1132.29ZM1133.71 439.856C1132.35 440.265 1130.05 440.704 1126.72 441.158L1127.26 445.122C1130.62 444.664 1133.18 444.191 1134.86 443.688L1133.71 439.856ZM1126.71 441.16C1123.62 441.602 1120.37 441.824 1116.96 441.824V445.824C1120.54 445.824 1123.98 445.59 1127.27 445.12L1126.71 441.16ZM1116.96 441.824C1113.7 441.824 1110.77 441.602 1108.17 441.167L1107.51 445.113C1110.37 445.59 1113.52 445.824 1116.96 445.824V441.824ZM1108.19 441.17C1105.86 440.761 1103.96 439.957 1102.43 438.804L1100.03 442.004C1102.14 443.587 1104.64 444.607 1107.49 445.11L1108.19 441.17ZM1102.43 438.804C1100.89 437.653 1099.65 436.1 1098.71 434.086L1095.08 435.778C1096.27 438.324 1097.91 440.419 1100.03 442.004L1102.43 438.804ZM1098.77 434.23C1097.97 432.101 1097.53 429.245 1097.53 425.584H1093.53C1093.53 429.523 1094 432.899 1095.02 435.634L1098.77 434.23ZM1097.53 425.584V357.184H1093.53V425.584H1097.53ZM1097.53 357.184C1097.53 353.34 1098.31 350.407 1099.71 348.239L1096.35 346.065C1094.41 349.065 1093.53 352.82 1093.53 357.184H1097.53ZM1099.67 348.305C1101.34 345.939 1103.59 343.741 1106.48 341.722L1104.18 338.446C1100.99 340.683 1098.38 343.197 1096.4 345.999L1099.67 348.305ZM1106.48 341.718C1111.43 338.226 1117.68 335.345 1125.27 333.111L1124.15 329.273C1116.24 331.599 1109.57 334.646 1104.18 338.45L1106.48 341.718ZM1125.26 333.114C1132.96 330.893 1141.51 329.772 1150.93 329.772V325.772C1141.2 325.772 1132.27 326.931 1124.16 329.27L1125.26 333.114ZM1150.93 329.772C1167.84 329.772 1180.55 333.516 1189.33 340.719L1191.87 337.625C1182.11 329.628 1168.37 325.772 1150.93 325.772V329.772ZM1189.35 340.731C1198.09 347.749 1202.51 357.553 1202.51 370.408H1206.51C1206.51 356.511 1201.66 345.491 1191.85 337.613L1189.35 340.731ZM1202.51 370.408V441.772H1206.51V370.408H1202.51ZM1203.93 439.856C1202.57 440.265 1200.27 440.704 1196.94 441.158L1197.48 445.122C1200.84 444.664 1203.41 444.191 1205.08 443.688L1203.93 439.856ZM1196.93 441.16C1193.84 441.602 1190.59 441.824 1187.18 441.824V445.824C1190.76 445.824 1194.2 445.59 1197.5 445.12L1196.93 441.16ZM1187.18 441.824C1183.93 441.824 1181 441.602 1178.39 441.167L1177.73 445.113C1180.6 445.59 1183.75 445.824 1187.18 445.824V441.824ZM1178.41 441.17C1176.09 440.761 1174.19 439.957 1172.65 438.804L1170.25 442.004C1172.36 443.587 1174.87 444.607 1177.71 445.11L1178.41 441.17ZM1172.65 438.804C1171.12 437.653 1169.87 436.1 1168.93 434.086L1165.31 435.778C1166.49 438.324 1168.14 440.419 1170.25 442.004L1172.65 438.804ZM1168.99 434.23C1168.19 432.101 1167.75 429.245 1167.75 425.584H1163.75C1163.75 429.523 1164.22 432.899 1165.24 435.634L1168.99 434.23ZM1167.75 425.584V371.776H1163.75V425.584H1167.75ZM1258.32 285.82L1256.91 284.406L1256.89 284.42L1256.88 284.434L1258.32 285.82ZM1289.1 285.82L1287.66 287.206L1287.67 287.22L1287.69 287.234L1289.1 285.82ZM1289.1 315.004L1287.69 313.59L1287.67 313.604L1287.66 313.618L1289.1 315.004ZM1258.32 315.004L1256.88 316.39L1256.89 316.404L1256.91 316.418L1258.32 315.004ZM1293.2 441.772L1293.56 443.74L1295.2 443.441V441.772H1293.2ZM1285.68 442.912L1285.41 440.93L1285.36 440.937L1285.31 440.947L1285.68 442.912ZM1266.76 443.14L1266.41 445.11L1266.42 445.111L1266.43 445.113L1266.76 443.14ZM1260.14 440.404L1258.94 442.004L1258.94 442.004L1260.14 440.404ZM1255.81 434.932L1253.94 435.634L1253.97 435.707L1254 435.778L1255.81 434.932ZM1254.44 332.788L1254.09 330.82L1252.44 331.119V332.788H1254.44ZM1261.74 331.648L1262.02 333.628L1262.06 333.623L1262.1 333.616L1261.74 331.648ZM1280.66 331.42L1280.32 333.39L1280.33 333.391L1280.33 333.393L1280.66 331.42ZM1287.5 334.156L1286.3 335.756L1286.3 335.756L1287.5 334.156ZM1291.61 339.856L1289.73 340.558L1289.76 340.631L1289.79 340.702L1291.61 339.856ZM1254.62 300.412C1254.62 295.122 1256.34 290.764 1259.76 287.206L1256.88 284.434C1252.7 288.78 1250.62 294.15 1250.62 300.412H1254.62ZM1259.73 287.234C1263.26 283.712 1267.89 281.892 1273.82 281.892V277.892C1266.99 277.892 1261.29 280.024 1256.91 284.406L1259.73 287.234ZM1273.82 281.892C1279.76 281.892 1284.3 283.711 1287.66 287.206L1290.54 284.434C1286.3 280.025 1280.65 277.892 1273.82 277.892V281.892ZM1287.69 287.234C1291.25 290.797 1293.03 295.147 1293.03 300.412H1297.03C1297.03 294.125 1294.85 288.747 1290.51 284.406L1287.69 287.234ZM1293.03 300.412C1293.03 305.677 1291.25 310.027 1287.69 313.59L1290.51 316.418C1294.85 312.077 1297.03 306.699 1297.03 300.412H1293.03ZM1287.66 313.618C1284.3 317.113 1279.76 318.932 1273.82 318.932V322.932C1280.65 322.932 1286.3 320.799 1290.54 316.39L1287.66 313.618ZM1273.82 318.932C1267.89 318.932 1263.26 317.112 1259.73 313.59L1256.91 316.418C1261.29 320.8 1266.99 322.932 1273.82 322.932V318.932ZM1259.76 313.618C1256.34 310.06 1254.62 305.702 1254.62 300.412H1250.62C1250.62 306.674 1252.7 312.044 1256.88 316.39L1259.76 313.618ZM1292.85 439.804C1291.22 440.1 1288.75 440.475 1285.41 440.93L1285.95 444.894C1289.3 444.437 1291.84 444.052 1293.56 443.74L1292.85 439.804ZM1285.31 440.947C1282.24 441.531 1279.1 441.824 1275.88 441.824V445.824C1279.34 445.824 1282.73 445.509 1286.05 444.877L1285.31 440.947ZM1275.88 441.824C1272.62 441.824 1269.69 441.602 1267.08 441.167L1266.43 445.113C1269.29 445.59 1272.44 445.824 1275.88 445.824V441.824ZM1267.1 441.17C1264.78 440.761 1262.88 439.957 1261.34 438.804L1258.94 442.004C1261.05 443.587 1263.56 444.607 1266.41 445.11L1267.1 441.17ZM1261.34 438.804C1259.81 437.653 1258.56 436.1 1257.62 434.086L1254 435.778C1255.19 438.324 1256.83 440.419 1258.94 442.004L1261.34 438.804ZM1257.68 434.23C1256.89 432.101 1256.44 429.245 1256.44 425.584H1252.44C1252.44 429.523 1252.91 432.899 1253.94 435.634L1257.68 434.23ZM1256.44 425.584V332.788H1252.44V425.584H1256.44ZM1254.8 334.756C1256.44 334.459 1258.84 334.083 1262.02 333.628L1261.46 329.668C1258.26 330.125 1255.8 330.509 1254.09 330.82L1254.8 334.756ZM1262.1 333.616C1265.32 333.029 1268.55 332.736 1271.77 332.736V328.736C1268.31 328.736 1264.84 329.051 1261.38 329.68L1262.1 333.616ZM1271.77 332.736C1275.03 332.736 1277.87 332.958 1280.32 333.39L1281.01 329.45C1278.29 328.97 1275.2 328.736 1271.77 328.736V332.736ZM1280.33 333.393C1282.82 333.807 1284.79 334.618 1286.3 335.756L1288.7 332.556C1286.57 330.958 1283.98 329.945 1280.99 329.447L1280.33 333.393ZM1286.3 335.756C1287.78 336.864 1288.94 338.432 1289.73 340.558L1293.48 339.154C1292.45 336.416 1290.87 334.184 1288.7 332.556L1286.3 335.756ZM1289.79 340.702C1290.69 342.617 1291.2 345.333 1291.2 348.976H1295.2C1295.2 345.019 1294.65 341.655 1293.42 339.01L1289.79 340.702ZM1291.2 348.976V441.772H1295.2V348.976H1291.2ZM1398.82 416.692L1399.12 418.67L1399.15 418.664L1399.19 418.657L1398.82 416.692ZM1405.89 414.412L1406.92 416.127L1407.89 415.544V414.412H1405.89ZM1405.89 396.172H1407.89V393.998L1405.72 394.179L1405.89 396.172ZM1389.47 397.54L1389.61 399.535L1389.63 399.534L1389.64 399.533L1389.47 397.54ZM1378.98 400.276L1378.01 398.528L1378.01 398.528L1378.98 400.276ZM1378.3 414.64L1376.99 416.151L1377.04 416.198L1377.1 416.24L1378.3 414.64ZM1410.9 330.28L1410.42 332.22L1410.43 332.223L1410.9 330.28ZM1428.23 338.032L1427.04 339.638L1427.07 339.66L1427.1 339.68L1428.23 338.032ZM1439.4 351.028L1437.6 351.902L1437.61 351.912L1437.61 351.922L1439.4 351.028ZM1439.86 430.372L1438.36 429.049L1438.35 429.055L1439.86 430.372ZM1432.11 436.756L1431.08 435.041L1431.08 435.041L1432.11 436.756ZM1368.5 443.368L1368.03 445.314L1368.04 445.316L1368.5 443.368ZM1351.85 436.528L1350.74 438.192L1350.75 438.2L1350.77 438.209L1351.85 436.528ZM1341.14 424.9L1339.36 425.817L1339.37 425.84L1339.38 425.862L1341.14 424.9ZM1346.84 384.316L1345.5 382.831L1345.5 382.831L1346.84 384.316ZM1375.79 373.828L1376 375.817L1376 375.817L1375.79 373.828ZM1405.66 370.636L1405.87 372.625L1407.66 372.434V370.636H1405.66ZM1399.73 359.692L1398.81 361.466L1398.85 361.488L1398.89 361.508L1399.73 359.692ZM1366.22 358.552L1365.78 356.6L1365.78 356.6L1366.22 358.552ZM1351.4 363.112L1350.26 364.756L1351.15 365.377L1352.16 364.96L1351.4 363.112ZM1346.38 356.956L1344.57 357.812L1344.58 357.831L1344.59 357.85L1346.38 356.956ZM1347.06 338.716L1345.51 337.455L1345.51 337.461L1345.5 337.467L1347.06 338.716ZM1355.96 332.56L1355.25 330.69L1355.21 330.703L1355.18 330.718L1355.96 332.56ZM1371.46 328.912L1371.21 326.927L1371.2 326.928L1371.46 328.912ZM1390.38 419.376C1393.08 419.376 1396 419.138 1399.12 418.67L1398.52 414.714C1395.56 415.158 1392.85 415.376 1390.38 415.376V419.376ZM1399.19 418.657C1402.46 418.035 1405.09 417.222 1406.92 416.127L1404.86 412.697C1403.64 413.426 1401.57 414.133 1398.44 414.727L1399.19 418.657ZM1407.89 414.412V396.172H1403.89V414.412H1407.89ZM1405.72 394.179L1389.3 395.547L1389.64 399.533L1406.05 398.165L1405.72 394.179ZM1389.33 395.545C1384.88 395.863 1381.08 396.824 1378.01 398.528L1379.95 402.024C1382.36 400.688 1385.55 399.825 1389.61 399.535L1389.33 395.545ZM1378.01 398.528C1376.39 399.428 1375.08 400.607 1374.19 402.097C1373.29 403.59 1372.88 405.286 1372.88 407.116H1376.88C1376.88 405.906 1377.15 404.942 1377.62 404.155C1378.09 403.365 1378.84 402.644 1379.95 402.024L1378.01 398.528ZM1372.88 407.116C1372.88 410.731 1374.27 413.792 1376.99 416.151L1379.61 413.129C1377.77 411.536 1376.88 409.581 1376.88 407.116H1372.88ZM1377.1 416.24C1380.07 418.466 1384.65 419.376 1390.38 419.376V415.376C1384.87 415.376 1381.4 414.462 1379.5 413.04L1377.1 416.24ZM1388.56 329.772C1396.63 329.772 1403.92 330.595 1410.42 332.22L1411.39 328.34C1404.51 326.621 1396.9 325.772 1388.56 325.772V329.772ZM1410.43 332.223C1417.06 333.844 1422.58 336.329 1427.04 339.638L1429.42 336.426C1424.46 332.743 1418.43 330.06 1411.38 328.337L1410.43 332.223ZM1427.1 339.68C1431.68 342.828 1435.17 346.893 1437.6 351.902L1441.2 350.154C1438.47 344.523 1434.51 339.924 1429.36 336.384L1427.1 339.68ZM1437.61 351.922C1440.03 356.755 1441.28 362.591 1441.28 369.496H1445.28C1445.28 362.113 1443.94 355.637 1441.19 350.134L1437.61 351.922ZM1441.28 369.496V420.568H1445.28V369.496H1441.28ZM1441.28 420.568C1441.28 424.109 1440.27 426.884 1438.36 429.049L1441.36 431.695C1444.01 428.692 1445.28 424.931 1445.28 420.568H1441.28ZM1438.35 429.055C1436.38 431.316 1433.96 433.314 1431.08 435.041L1433.14 438.471C1436.34 436.55 1439.09 434.292 1441.36 431.689L1438.35 429.055ZM1431.08 435.041C1421.64 440.706 1408.14 443.648 1390.38 443.648V447.648C1408.5 447.648 1422.82 444.662 1433.14 438.471L1431.08 435.041ZM1390.38 443.648C1382.45 443.648 1375.31 442.899 1368.95 441.42L1368.04 445.316C1374.75 446.877 1382.2 447.648 1390.38 447.648V443.648ZM1368.96 441.422C1362.76 439.946 1357.43 437.746 1352.94 434.847L1350.77 438.209C1355.7 441.39 1361.46 443.75 1368.03 445.314L1368.96 441.422ZM1352.96 434.864C1348.66 431.999 1345.31 428.362 1342.89 423.938L1339.38 425.862C1342.12 430.862 1345.92 434.977 1350.74 438.192L1352.96 434.864ZM1342.91 423.983C1340.65 419.6 1339.49 414.453 1339.49 408.484H1335.49C1335.49 414.979 1336.76 420.776 1339.36 425.817L1342.91 423.983ZM1339.49 408.484C1339.49 398.41 1342.46 390.955 1348.17 385.801L1345.5 382.831C1338.74 388.925 1335.49 397.582 1335.49 408.484H1339.49ZM1348.17 385.801C1353.96 380.58 1363.13 377.164 1376 375.817L1375.58 371.839C1362.31 373.228 1352.17 376.804 1345.5 382.831L1348.17 385.801ZM1376 375.817L1405.87 372.625L1405.45 368.647L1375.58 371.839L1376 375.817ZM1407.66 370.636V369.04H1403.66V370.636H1407.66ZM1407.66 369.04C1407.66 366.531 1407.09 364.262 1405.87 362.326C1404.64 360.388 1402.83 358.92 1400.57 357.876L1398.89 361.508C1400.58 362.288 1401.74 363.29 1402.49 364.468C1403.24 365.648 1403.66 367.141 1403.66 369.04H1407.66ZM1400.65 357.918C1396.43 355.723 1390.51 354.728 1383.09 354.728V358.728C1390.26 358.728 1395.43 359.709 1398.81 361.466L1400.65 357.918ZM1383.09 354.728C1377.17 354.728 1371.4 355.351 1365.78 356.6L1366.65 360.504C1371.97 359.321 1377.45 358.728 1383.09 358.728V354.728ZM1365.78 356.6C1360.22 357.837 1355.16 359.389 1350.63 361.264L1352.16 364.96C1356.44 363.187 1361.27 361.699 1366.65 360.504L1365.78 356.6ZM1352.53 361.468C1350.9 360.336 1349.43 358.577 1348.17 356.062L1344.59 357.85C1346.07 360.807 1347.94 363.152 1350.26 364.756L1352.53 361.468ZM1348.19 356.1C1346.94 353.465 1346.33 350.793 1346.33 348.064H1342.33C1342.33 351.415 1343.08 354.671 1344.57 357.812L1348.19 356.1ZM1346.33 348.064C1346.33 344.406 1347.17 341.783 1348.62 339.965L1345.5 337.467C1343.31 340.209 1342.33 343.818 1342.33 348.064H1346.33ZM1348.62 339.977C1350.32 337.875 1352.98 335.991 1356.73 334.402L1355.18 330.718C1351.03 332.473 1347.76 334.693 1345.51 337.455L1348.62 339.977ZM1356.66 334.43C1360.89 332.826 1365.9 331.641 1371.71 330.896L1371.2 326.928C1365.16 327.703 1359.83 328.95 1355.25 330.69L1356.66 334.43ZM1371.71 330.897C1377.72 330.145 1383.33 329.772 1388.56 329.772V325.772C1383.14 325.772 1377.36 326.159 1371.21 326.927L1371.71 330.897Z" fill="black"/>
<defs>
<linearGradient id="paint0_linear" x1="456" y1="-21.5" x2="462.038" y2="578.26" gradientUnits="userSpaceOnUse">
<stop offset="0.0520833" stop-color="#2D55BD"/>
<stop offset="0.996206" stop-color="#203467"/>
<stop offset="0.996306" stop-color="#2D55BD" stop-opacity="0.49003"/>
<stop offset="1" stop-color="#2D55BD" stop-opacity="0"/>
</linearGradient>
</defs>
</svg>
